# xmcd
#
# Track frame offsets:
#	150
#	9756
#	28631
#	45427
#	59098
#	74152
#	90305
#	103251
#	111850
#	125482
#
# Disc length: 1864 seconds
# Revision: 0
# Processed by: cddbd v1.5.2PL0 Copyright (c) Steve Scherf et al.
# Submitted via: dBpowerAMP V12.0
#
DISCID=8407460a
DTITLE=Johnny and Jeanette Williams - Thirty Years Later
DYEAR=2018
DGENRE=Country
TTITLE0=How Long Has It Been
TTITLE1=Take Me Back Home
TTITLE2=Fathers Hand
TTITLE3=River Of Tears
TTITLE4=Gray Pony
TTITLE5=I Don't Worry
TTITLE6=The One I Left Behind
TTITLE7=Could It Be
TTITLE8=In His Arms
TTITLE9=Gone For So Long
EXTD=
EXTT0=
EXTT1=
EXTT2=
EXTT3=
EXTT4=
EXTT5=
EXTT6=
EXTT7=
EXTT8=
EXTT9=
PLAYORDER=
